#!OML:ASF H:\GeneralSubjects\Female5\Project 1\Capture day 1\Session 1\Female5.ASF
:FULLY-SPECIFIED
:DEGREES
346
root -10.9457 19.1852 1.46281 13.2342 -32.8083 -10.5749
lowerback 3.27679 2.6209 1.32814
upperback -10.6749 4.0719 4.42185
thorax -13.7502 2.07241 3.53118
lowerneck -12.1904 -3.76428 -2.26598
upperneck 41.9866 -8.15128 4.77494
head 18.0308 -3.27058 1.06261
rclavicle -4.22914e-014 -3.97569e-016
rhumerus -46.3271 41.3217 -88.7515
rradius 68.2685
rwrist -6.15112
rhand -30.4866 -6.54755
rfingers 7.12502
rthumb -3.78733 -36.4936
lclavicle -4.22914e-014 -3.97569e-016
lhumerus -48.384 -3.71758 58.7147
lradius 73.0021
lwrist -12.0243
lhand -39.3284 24.3805
lfingers 7.12502
lthumb -12.3203 53.9976
rfemur -3.24107 17.323 34.2145
rtibia -0.934381
rfoot -25.5247 -29.7228
rtoes 69.0562
lfemur -8.0516 -26.3592 -20.8305
ltibia 9.67599
lfoot -19.1758 6.99348
ltoes -18.6351
347
root -10.9176 19.0812 1.51046 14.0506 -38.1118 -11.4164
lowerback 3.67903 2.91226 1.61598
upperback -10.62 4.47445 4.23741
thorax -13.9205 2.20885 3.08957
lowerneck -11.9402 -3.29777 -1.50337
upperneck 42.2356 -7.73434 4.63401
head 18.036 -3.04139 0.934994
rclavicle -7.12643e-014 -5.36719e-015
rhumerus -46.3014 39.6247 -87.2818
rradius 65.8104
rwrist -5.05428
rhand -31.3837 -6.63352
rfingers 7.12502
rthumb -4.65361 -36.5624
lclavicle -7.12643e-014 -5.36719e-015
lhumerus -50.8173 -2.19149 58.3564
lradius 69.6531
lwrist -11.8973
lhand -39.2154 23.3371
lfingers 7.12502
lthumb -12.2114 52.9607
rfemur -2.31786 17.853 34.5156
rtibia -1.67632
rfoot -26.0543 -29.4547
rtoes 68.4351
lfemur -8.37903 -28.2182 -19.7956
ltibia 9.11234
lfoot -18.302 6.94403
ltoes -20.0551
348
root -10.8901 18.9251 1.55697 14.9645 -43.2563 -12.2934
lowerback 4.12903 3.12836 1.82773
upperback -10.626 4.75686 3.88989
thorax -14.1698 2.2831 2.5232
lowerneck -11.7305 -2.80357 -0.462526
upperneck 42.463 -7.32398 4.41478
head 18.0293 -2.78084 0.715588
rclavicle -1.35671e-013 -5.52621e-014
rhumerus -46.2884 37.6269 -85.505
rradius 63.551
rwrist -4.19098
rhand -31.2083 -7.61668
rfingers 7.12502
rthumb -4.48425 -37.5492
lclavicle -1.35671e-013 -5.52621e-014
lhumerus -52.8735 -0.955969 57.8928
lradius 66.3193
lwrist -11.5788
lhand -39.1566 23.2454
lfingers 7.12502
lthumb -12.1547 52.8723
rfemur -1.73421 16.7494 34.7519
rtibia -2.31891
rfoot -24.8921 -33.7962
rtoes 68.248
lfemur -8.99488 -30.3274 -18.7351
ltibia 9.27772
lfoot -18.0646 7.13654
ltoes -19.6757
349
root -10.871 18.7223 1.58838 16.057 -48.4461 -13.0147
lowerback 4.39768 3.36393 1.66587
upperback -10.7157 4.99589 3.33627
thorax -14.4088 2.36258 1.94774
lowerneck -11.6638 -2.25646 0.624377
upperneck 42.6532 -6.91025 4.362
head 18.0617 -2.48475 0.560999
rclavicle 3.37685e-014 3.72721e-014
rhumerus -46.1597 35.2116 -83.2288
rradius 61.7659
rwrist -3.08141
rhand -31.2186 -8.2128
rfingers 7.12502
rthumb -4.49426 -38.1451
lclavicle 3.37685e-014 3.72721e-014
lhumerus -54.5478 -0.240537 57.3769
lradius 63.1369
lwrist -10.9326
lhand -39.2214 23.6296
lfingers 7.12502
lthumb -12.2171 53.2528
rfemur -1.9992 14.1228 34.8328
rtibia -1.97179
rfoot -24.0022 -36.1209
rtoes 66.3129
lfemur -10.4456 -30.3103 -17.9379
ltibia 10.8864
lfoot -16.0996 7.47854
ltoes -18.1111
350
root -10.8443 18.4896 1.62599 16.8242 -53.5332 -13.1175
lowerback 4.55157 3.63499 0.606226
upperback -10.7568 5.16783 2.72625
thorax -14.5935 2.50934 1.82044
lowerneck -11.9295 -1.98555 1.92601
upperneck 42.369 -6.85393 4.12186
head 17.8966 -2.31708 0.206905
rclavicle -8.88567e-014 -2.84262e-014
rhumerus -45.8816 32.6603 -80.1426
rradius 60.7906
rwrist -3.12232
rhand -31.2879 -7.65374
rfingers 7.12502
rthumb -4.56115 -37.5846
lclavicle -8.88567e-014 -2.84262e-014
lhumerus -55.6646 -0.0270756 57.3363
lradius 60.324
lwrist -10.1329
lhand -39.2471 24.4723
lfingers 7.12502
lthumb -12.2419 54.0941
rfemur -2.92525 9.59613 34.4225
rtibia -0.528519
rfoot -23.5172 -32.935
rtoes 65.8405
lfemur -12.4454 -30.1845 -17.7995
ltibia 13.7072
lfoot -14.3697 6.94867
ltoes -18.1781
351
root -10.8428 18.2126 1.66237 19.2445 -57.977 -15.7067
lowerback 4.8003 3.77692 0.939271
upperback -10.643 5.36367 2.48691
thorax -14.5575 2.53977 1.32612
lowerneck -12.3643 -1.63056 2.23686
upperneck 41.8924 -6.71358 4.77432
head 17.7667 -2.15095 0.457204
rclavicle -5.66536e-015 -1.11319e-014
rhumerus -45.8398 30.4902 -76.9416
rradius 60.6792
rwrist -4.27941
rhand -31.8844 -7.53356
rfingers 7.12502
rthumb -5.13716 -37.4513
lclavicle -5.66536e-015 -1.11319e-014
lhumerus -56.2657 0.56423 57.337
lradius 58.0035
lwrist -10.2404
lhand -39.0718 25.0079
lfingers 7.12502
lthumb -12.0729 54.6396
rfemur -3.46905 5.02142 35.7379
rtibia 1.54476
rfoot -20.2042 -32.7138
rtoes 65.554
lfemur -14.0192 -29.554 -16.3415
ltibia 16.8179
lfoot -12.6413 8.10016
ltoes -19.7704
352
root -10.835 17.9171 1.73686 20.0088 -62.1151 -16.1818
lowerback 4.75986 3.61634 0.822329
upperback -10.5853 5.00517 1.54637
thorax -14.351 2.31082 0.420725
lowerneck -13.1092 -1.21925 3.05706
upperneck 41.7405 -6.60772 5.14954
head 17.8828 -1.94312 0.478511
rclavicle 7.88181e-014 -3.97569e-016
rhumerus -45.9401 28.6254 -74.2812
rradius 60.8046
rwrist -4.64484
rhand -31.857 -8.42093
rfingers 7.12502
rthumb -5.11069 -38.3393
lclavicle 7.88181e-014 -3.97569e-016
lhumerus -56.9548 -0.410267 57.6198
lradius 56.5912
lwrist -9.73413
lhand -38.8406 24.51
lfingers 7.12502
lthumb -11.8499 54.1547
rfemur -3.7746 0.371284 35.4064
rtibia 3.62402
rfoot 36.3845 -39.2721
rtoes 58.3851
lfemur -15.1818 -29.6287 -16.9
ltibia 19.7483
lfoot -10.4494 9.26601
ltoes -19.2148
353
root -10.8244 17.5497 1.81805 23.2168 -66.6245 -19.2043
lowerback 4.6869 3.74377 1.36286
upperback -10.6165 5.16345 1.04262
thorax -14.2346 2.28426 -0.450124
lowerneck -13.6651 -0.909029 4.07967
upperneck 41.1102 -6.33555 4.86479
head 17.6082 -1.73384 0.191002
rclavicle 2.94201e-014 1.51076e-014
rhumerus -45.9561 27.3691 -70.9675
rradius 61.2008
rwrist -5.40391
rhand -33.3304 -7.9326
rfingers 7.12502
rthumb -6.53319 -37.8118
lclavicle 2.94201e-014 1.51076e-014
lhumerus -57.2891 -0.955384 58.1848
lradius 55.0199
lwrist -10.1998
lhand -38.0246 23.3508
lfingers 7.12502
lthumb -11.063 53.0392
rfemur -4.41316 -1.33577 36.0348
rtibia 6.24669
rfoot 22.8933 -35.9485
rtoes 51.5956
lfemur -16.034 -29.0729 -16.6027
ltibia 21.8556
lfoot -8.52517 9.98935
ltoes -16.8139
354
root -10.8384 17.141 1.91423 26.9436 -70.9827 -23.0778
lowerback 4.71967 3.80472 2.14226
upperback -10.5926 5.25675 0.483764
thorax -14.0895 2.2 -1.50457
lowerneck -13.8057 -0.488463 5.39048
upperneck 40.1331 -5.76613 4.2814
head 17.0169 -1.42074 -0.217446
rclavicle 2.66371e-014 2.06736e-014
rhumerus -45.9591 26.6313 -67.7484
rradius 61.6317
rwrist -5.80966
rhand -33.8134 -7.71111
rfingers 7.12502
rthumb -6.99941 -37.5754
lclavicle 2.66371e-014 2.06736e-014
lhumerus -56.9202 -1.26816 58.4609
lradius 52.8007
lwrist -11.1936
lhand -36.8683 22.6497
lfingers 7.12502
lthumb -9.94758 52.3947
rfemur -4.28786 -2.90773 36.2461
rtibia 8.41705
rfoot 6.58933 -29.2876
rtoes 37.8333
lfemur -15.8435 -28.0504 -17.0708
ltibia 23.3967
lfoot -5.60227 6.71914
ltoes -9.58306
355
root -10.8842 16.6904 1.99679 32.2397 -75.1092 -28.9294
lowerback 4.90862 3.8098 2.95232
upperback -10.48 5.29877 0.0200629
thorax -13.9483 2.09941 -2.47119
lowerneck -13.5405 0.0212498 6.14393
upperneck 38.9537 -4.98542 4.11009
head 16.2905 -1.06572 -0.294373
rclavicle 1.47101e-014 -4.77083e-015
rhumerus -45.4479 26.0819 -64.5496
rradius 61.4625
rwrist -6.77307
rhand -32.9389 -6.51115
rfingers 7.12502
rthumb -6.15519 -36.4017
lclavicle 1.47101e-014 -4.77083e-015
lhumerus -56.4057 -2.51037 59.208
lradius 51.1245
lwrist -11.5248
lhand -35.2775 23.0133
lfingers 7.12502
lthumb -8.4126 52.8257
rfemur -2.9819 -2.11324 36.4261
rtibia 8.11646
rfoot -1.6457 -22.9249
rtoes 23.8794
lfemur -14.9939 -27.6859 -17.3116
ltibia 27.432
lfoot -2.56522 -2.39919
ltoes -7.50579
